<?xml version="1.0" standalone="no"?><!DOCTYPE svg PUBLIC "-//W3C//DTD SVG 1.1//EN" "http://www.w3.org/Graphics/SVG/1.1/DTD/svg11.dtd"><svg t="1620720326512" class="icon" viewBox="0 0 1024 1024" version="1.1" xmlns="http://www.w3.org/2000/svg" p-id="1251" xmlns:xlink="http://www.w3.org/1999/xlink" width="81" height="81"><defs><style type="text/css"></style></defs><path d="M154.666667 242.858667h725.333333v512h-725.333333z" fill="#FFFFFF" p-id="1252"></path><path d="M922.666667 797.525333h-810.666667v-597.333333h810.666667v597.333333z m-725.333334-85.333333h640v-426.666667h-640v426.666667z" fill="#666666" p-id="1253"></path><path d="M567.466667 342.293333h180.309333c9.045333 0 13.354667 11.136 6.677333 17.216l-71.957333 65.536a9.877333 9.877333 0 0 1-6.677333 2.581334h-38.037334a9.962667 9.962667 0 0 1-6.762666-2.666667l-70.314667-65.536a9.898667 9.898667 0 0 1 6.762667-17.130667zM764.608 495.402667H697.813333a9.258667 9.258667 0 0 1-9.258666-9.258667v-54.229333c0-2.581333 1.088-5.056 2.965333-6.805334l66.794667-61.76a9.258667 9.258667 0 0 1 15.552 6.805334v115.989333a9.237333 9.237333 0 0 1-9.258667 9.258667zM551.637333 495.402667h62.698667a11.306667 11.306667 0 0 0 11.306667-11.306667v-51.285333a11.306667 11.306667 0 0 0-3.626667-8.298667l-62.698667-57.962667a11.306667 11.306667 0 0 0-18.986666 8.298667v109.248a11.285333 11.285333 0 0 0 11.306666 11.306667zM746.709333 653.738667H566.4a9.898667 9.898667 0 0 1-6.677333-17.216l71.957333-65.536a9.877333 9.877333 0 0 1 6.677333-2.581334h38.037334c2.496 0 4.928 0.96 6.762666 2.666667l70.314667 65.536a9.898667 9.898667 0 0 1-6.762667 17.130667zM549.568 500.629333h66.794667c5.12 0 9.258667 4.138667 9.258666 9.258667v54.229333a9.322667 9.322667 0 0 1-2.965333 6.805334l-66.794667 61.76a9.258667 9.258667 0 0 1-15.552-6.805334v-115.989333c0-5.098667 4.16-9.258667 9.258667-9.258667zM762.56 500.629333h-62.698667a11.306667 11.306667 0 0 0-11.306666 11.306667v51.285333a11.306667 11.306667 0 0 0 3.626666 8.298667l62.698667 57.962667a11.306667 11.306667 0 0 0 18.986667-8.298667v-109.248a11.306667 11.306667 0 0 0-11.306667-11.306667z" fill="#666666" p-id="1254"></path><path d="M289.045333 342.293333h180.309334c9.045333 0 13.354667 11.136 6.677333 17.216l-71.957333 65.536a9.877333 9.877333 0 0 1-6.677334 2.581334h-38.037333a9.962667 9.962667 0 0 1-6.762667-2.666667l-70.314666-65.536a9.898667 9.898667 0 0 1 6.762666-17.130667zM486.186667 495.402667h-66.794667a9.258667 9.258667 0 0 1-9.258667-9.258667v-54.229333c0-2.581333 1.088-5.056 2.965334-6.805334l66.794666-61.76a9.258667 9.258667 0 0 1 15.552 6.805334v115.989333c0 5.12-4.16 9.258667-9.258666 9.258667zM273.194667 495.402667h62.698666a11.306667 11.306667 0 0 0 11.306667-11.306667v-51.285333a11.306667 11.306667 0 0 0-3.626667-8.298667l-62.698666-57.962667a11.306667 11.306667 0 0 0-18.986667 8.298667v109.248c0 6.250667 5.056 11.306667 11.306667 11.306667zM468.288 653.738667h-180.309333a9.898667 9.898667 0 0 1-6.677334-17.216l71.957334-65.536a9.877333 9.877333 0 0 1 6.677333-2.581334h38.037333c2.496 0 4.928 0.96 6.762667 2.666667l70.314667 65.536a9.898667 9.898667 0 0 1-6.762667 17.130667zM271.146667 500.629333h66.794666c5.12 0 9.258667 4.138667 9.258667 9.258667v54.229333a9.322667 9.322667 0 0 1-2.965333 6.805334l-66.794667 61.76a9.258667 9.258667 0 0 1-15.552-6.805334v-115.989333c0-5.098667 4.138667-9.258667 9.258667-9.258667zM484.117333 500.629333h-62.698666a11.306667 11.306667 0 0 0-11.306667 11.306667v51.285333a11.306667 11.306667 0 0 0 3.626667 8.298667l62.698666 57.962667a11.306667 11.306667 0 0 0 18.986667-8.298667v-109.248a11.306667 11.306667 0 0 0-11.306667-11.306667z" fill="#666666" p-id="1255"></path></svg>